<?xml version="1.0" standalone="no"?><!DOCTYPE svg PUBLIC "-//W3C//DTD SVG 1.1//EN" "http://www.w3.org/Graphics/SVG/1.1/DTD/svg11.dtd"><svg t="1605107883034" class="icon" viewBox="0 0 1024 1024" version="1.1" xmlns="http://www.w3.org/2000/svg" p-id="1483" xmlns:xlink="http://www.w3.org/1999/xlink" width="200" height="200"><defs><style type="text/css"></style></defs><path d="M794.6752 912.1792H226.2528c-62.208 0-112.64-50.432-112.64-112.64v-140.9024c0-33.9456 27.4944-61.44 61.44-61.44h670.8224c33.9456 0 61.44 27.4944 61.44 61.44v140.9024c0 62.208-50.432 112.64-112.64 112.64z" fill="#FACC31" p-id="1484"></path><path d="M845.8752 312.3712h-75.008C753.8688 183.808 643.584 84.2752 510.464 84.2752S267.1104 183.808 250.0608 312.3712H175.0528c-47.9744 0-87.04 39.0656-87.04 87.04v400.128c0 76.2368 62.0032 138.24 138.24 138.24h568.4224c76.2368 0 138.24-62.0032 138.24-138.24V399.4112c0-48.0256-39.0144-87.04-87.04-87.04zM510.464 135.4752c104.8576 0 192.1024 76.6976 208.6912 176.896H301.824c16.5888-100.2496 103.7824-176.896 208.64-176.896z m371.2512 664.064c0 47.9744-39.0656 87.04-87.04 87.04H226.2528c-47.9744 0-87.04-39.0656-87.04-87.04V399.4112c0-19.7632 16.0768-35.84 35.84-35.84h72.6528v95.5904c0 14.1312 11.4688 25.6 25.6 25.6s25.6-11.4688 25.6-25.6V363.5712h423.1168v95.5904c0 14.1312 11.4688 25.6 25.6 25.6s25.6-11.4688 25.6-25.6V363.5712h72.6528c19.7632 0 35.84 16.0768 35.84 35.84v400.128z" fill="#191919" p-id="1485"></path><path d="M804.4032 622.7968H222.6688c-14.1312 0-25.6-11.4688-25.6-25.6s11.4688-25.6 25.6-25.6h581.7344c14.1312 0 25.6 11.4688 25.6 25.6s-11.4688 25.6-25.6 25.6z" fill="#191919" p-id="1486"></path></svg>